<?xml version="1.0" encoding="UTF-8" standalone="no"?>
<svg width="64" height="32" xmlns="http://www.w3.org/2000/svg">
	<path fill="windowtext" d="m 16.03125,7.437011 c -5.15625,0 -10.4062502,2.812501 -14.1562501,8.4375 7.5,11.25 21,11.25 27.75,0 -3.375,-5.624999 -8.4375,-8.4375 -13.593749,-8.4375 z M 16.125,9.168456 A 6.7066338,6.7066338 0 0 1 22.831054,15.874511 6.7066338,6.7066338 0 0 1 16.125,22.582031 6.7066338,6.7066338 0 0 1 9.4189452,15.874511 6.7066338,6.7066338 0 0 1 16.125,9.168456 Z m 0,3.706056 a 3,3 0 0 0 -3,3 3,3 0 0 0 3,3 3,3 0 0 0 3,-3 A 3,3 0 0 0 16.125,12.874512 Z" />
	<path fill="graytext" d="m 56.624998,5.620605 -1.001953,1.001953 -1.907226,1.907227 c -1.751072,-0.723782 -3.585685,-1.092774 -5.43457,-1.092774 -5.15625,0 -10.40625,2.812501 -14.15625,8.4375 1.77442,2.661631 3.888013,4.68022 6.165527,6.080567 l -1.917481,1.91748 -1.001952,1.001953 2.003906,2.005371 1.001953,-1.001953 17.25,-17.25 1.001953,-1.003417 -2.003907,-2.003907 z m -8.25 3.547851 a 6.7066338,6.7066338 0 0 1 3.625487,1.076661 l -2.761229,2.76123 a 3,3 0 0 0 -0.864258,-0.131835 3,3 0 0 0 -3,3 3,3 0 0 0 0.130371,0.865722 l -2.76123,2.761231 a 6.7066338,6.7066338 0 0 1 -1.075196,-3.626953 6.7066338,6.7066338 0 0 1 6.706055,-6.706055 z m 9.654785,2.056641 -3.131836,3.131836 a 6.7066338,6.7066338 0 0 1 0.183105,1.517578 6.7066338,6.7066338 0 0 1 -6.706054,6.70752 6.7066338,6.7066338 0 0 1 -1.520508,-0.181641 L 45.2666,23.98828 c 6.132746,1.31035 12.575453,-1.392194 16.608398,-8.113769 -1.115711,-1.859518 -2.418248,-3.404617 -3.845214,-4.649414 z" />
</svg>
